<svg xmlns="http://www.w3.org/2000/svg" xmlns:xlink="http://www.w3.org/1999/xlink" version="1.1"><metadata/><defs><font id="futuramedregular" horiz-adv-x="1161"><font-face ascent="1578" descent="-470" units-per-em="2048"/><glyph d="M61 676v186h71v331q0 161 57 230q35 43 96.5 68.5t129.5 25.5q60 0 133 -31v-203q-85 43 -126 43q-53 0 -72 -37.5t-19 -143.5v-283h217v-186h-217v-676h-199v676h-71zM606 1219q0 52 38 90t91 38q54 0 92 -37.5t38 -91.5t-38 -92t-91 -38q-54 0 -92 38t-38 93zM636 0 v862h199v-862h-199z" horiz-adv-x="961" unicode="ﬁ"/><glyph d="M61 676v186h71v332q0 161 57 230q35 43 96.5 68.5t128.5 25.5q61 0 134 -32v-203q-85 43 -127 43q-52 0 -71 -37.5t-19 -143.5v-283h217v-186h-217v-676h-199v676h-71zM636 0v1494h199v-1494h-199z" horiz-adv-x="961" unicode="ﬂ"/><glyph d="M61 676v186h71v331q0 161 57 230q35 43 96.5 68.5t129.5 25.5q61 0 133 -31v-203q-84 43 -126 43q-53 0 -72 -37.5t-19 -143.5v-283h163v-186h-163v-676h-199v676h-71zM572 676v186h71v331q0 162 57 230q35 43 96.5 68.5t129.5 25.5q60 0 133 -31v-203q-85 43 -126 43 q-53 0 -72 -37.5t-19 -143.5v-283h217v-186h-217v-676h-199v676h-71zM1116 1219q0 52 38.5 90t90.5 38q54 0 92 -37.5t38 -91.5t-38 -92t-91 -38q-54 0 -92 38t-38 93zM1147 0v862h199v-862h-199z" horiz-adv-x="1472" unicode="ﬃ"/><glyph horiz-adv-x="0"/><glyph horiz-adv-x="682"/><glyph horiz-adv-x="512"/><glyph horiz-adv-x="512"/><glyph horiz-adv-x="512"/><glyph d="M177 99q0 50 36.5 86t86.5 36q51 0 87 -36t36 -87q0 -52 -36 -88t-87 -36t-87 36.5t-36 88.5zM200 304v1061h199v-1061h-199z" horiz-adv-x="601" unicode="!"/><glyph d="M97 1365h226l-38 -549h-150zM421 1365h226l-38 -549h-151z" horiz-adv-x="743" unicode="&quot;"/><glyph d="M46 420v153h224l31 253h-204v156h224l48 395l155 -20l-46 -375h260l50 395l155 -20l-47 -375h198v-156h-215l-32 -253h197v-156h-217l-52 -424l-155 21l50 403h-262l-53 -424l-158 21l51 406h-202zM427 573h261l31 253h-260z" horiz-adv-x="1136" unicode="#"/><glyph d="M126 381l194 40q33 -111 71 -160q29 -40 79.5 -63t107.5 -23q107 0 173 74q54 61 54 149q0 87 -53.5 140.5t-217.5 128.5q-95 43 -133.5 66t-72.5 55q-105 101 -105 250q0 128 79 218.5t223 128.5v174h154v-174q196 -30 297 -229l-172 -96q-37 66 -70 94q-56 47 -134 47 q-91 0 -142 -61q-37 -43 -37 -99q0 -64 42 -105t163 -96q186 -85 261 -152q56 -51 88.5 -126.5t32.5 -156.5q0 -151 -90 -265.5t-239 -153.5v-184h-154v178q-171 28 -263.5 121t-135.5 280z" unicode="$"/><glyph d="M68 1063q0 131 107 230q93 86 222 86q149 0 247 -112q82 -92 82 -210q0 -138 -107 -235q-93 -86 -225 -86q-147 0 -245 112q-81 92 -81 215zM222 1059q0 -74 51 -125.5t124 -51.5t124 51.5t51 123.5q0 73 -51.5 124t-123.5 51q-73 0 -124 -51q-51 -52 -51 -122zM390 37 l782 1351l96 -54l-781 -1357zM932 313q0 132 107 231q93 87 222 87q149 0 247 -112q82 -93 82 -211q0 -138 -107 -236q-94 -86 -225 -86q-147 0 -245 112q-81 93 -81 215zM1086 311q0 -74 51 -126t124 -52t124 51.5t51 124.5q0 72 -51 123.5t-124 51.5t-124 -51 q-51 -53 -51 -122z" horiz-adv-x="1659" unicode="%"/><glyph d="M109 377q0 181 159 311l145 104q-135 145 -135 284q0 136 94 229q83 82 233 82q148 0 236 -87q89 -87 89 -209q0 -88 -50 -159.5t-181 -171.5l246 -298q85 94 152 178l134 -138q-50 -70 -161 -190l253 -312h-256l-136 167q-51 -53 -115 -97q-77 -55 -137.5 -76 t-138.5 -21q-206 0 -329 140q-102 116 -102 264zM307 383q0 -86 68.5 -154.5t154.5 -68.5q64 0 128 36.5t148 119.5l-270 327q-78 -53 -119 -86q-110 -89 -110 -174zM471 1098q0 -60 48 -118q54 -66 61 -76q59 45 87 68q69 56 69 123q0 54 -37 87.5t-96 33.5q-56 0 -94 -34 t-38 -84z" horiz-adv-x="1323" unicode="&amp;"/><glyph d="M97 1365h226l-38 -549h-150z" horiz-adv-x="419" unicode="'"/><glyph d="M164 565q0 294 65 580q43 189 128 364l184 -71q-82 -196 -114 -327q-61 -245 -61 -546t61 -546q32 -131 114 -327l-184 -71q-85 175 -128 363q-65 287 -65 581z" horiz-adv-x="664" unicode="("/><glyph d="M123 -308q82 196 114 327q61 244 61 546q0 301 -61 546q-32 131 -114 327l184 71q85 -176 128 -364q65 -286 65 -580t-65 -581q-43 -188 -128 -363z" horiz-adv-x="664" unicode=")"/><glyph d="M227 1173l55 169l223 -87l-14 239h178l-14 -239l223 87l55 -169l-231 -61l151 -185l-143 -104l-130 201l-129 -201l-144 104l152 185z" unicode="*"/><glyph d="M109 628v164h389v382h164v-382h389v-164h-389v-382h-164v382h-389z" unicode="+"/><glyph d="M18 -264l209 520l178 -69l-252 -506z" horiz-adv-x="519" unicode=","/><glyph d="M0 351v173h395v-173h-395z" horiz-adv-x="395" unicode="-"/><glyph d="M136 99q0 50 36.5 86t86.5 36q51 0 87 -36t36 -87q0 -52 -36 -88t-87 -36t-87 36.5t-36 88.5z" horiz-adv-x="518" unicode="."/><glyph d="M-14 -301l781 1810l164 -73l-782 -1810z" horiz-adv-x="939" unicode="/"/><glyph d="M98 692q0 291 127 484q61 93 154 152q96 60 201 60q145 0 270 -113q111 -100 166 -271q46 -144 46 -321q0 -297 -127 -494q-59 -92 -154 -152q-96 -60 -200 -60q-147 0 -272 113q-110 99 -165 271q-46 144 -46 331zM300 690q0 -225 86 -389q72 -136 194 -136t194 136 q86 164 86 382q0 224 -86 383q-74 135 -194 135q-122 0 -194 -135q-86 -163 -86 -376z" unicode="0"/><glyph d="M277 1172l113 193h329v-1365h-206v1172h-236z" unicode="1"/><glyph d="M67 0l473 574q81 97 165 212q75 104 75 191q0 106 -81 171q-65 53 -152 53q-123 0 -190 -95q-35 -49 -47 -149h-205q19 154 79 247q122 184 357 184q190 0 317 -123q123 -119 123 -289q0 -111 -59.5 -218.5t-233.5 -312.5l-212 -251h508v-194h-917z" unicode="2"/><glyph d="M99 370h199q13 -81 50 -123q71 -82 188 -82q113 0 180 82q51 63 51 155q0 140 -99 199q-51 31 -177 33v176q82 0 117 7q67 13 104 68q35 51 35 118q0 89 -60 144q-57 54 -148 54q-108 0 -158 -71q-24 -33 -41 -113h-206q24 139 73 214q104 157 335 157q191 0 299 -112 q107 -109 107 -265q0 -188 -148 -291q169 -101 169 -324q0 -205 -147 -322q-121 -97 -294 -97q-169 0 -285 93q-69 56 -101 122t-43 178z" unicode="3"/><glyph d="M39 194l876 1273v-1086h144v-187h-144v-194h-205v194h-671zM395 381h315v458z" unicode="4"/><glyph d="M57 232l156 132q49 -84 85 -119q85 -80 205 -80q140 0 224 107q67 85 67 196q0 135 -93 224q-78 76 -198 76q-75 0 -129.5 -27.5t-109.5 -93.5h-68l214 718h565v-193h-421l-67 -227q30 4 54 4q110 0 196 -39q121 -55 190 -178q68 -119 68 -259q0 -230 -161 -371 q-143 -125 -349 -125q-141 0 -244 61.5t-184 193.5z" unicode="5"/><glyph d="M122 422q0 161 134 343l477 649l151 -114l-326 -444q42 7 75 7q150 0 265 -105q142 -131 142 -324q0 -201 -150 -338q-129 -119 -305 -119q-197 0 -336 142q-127 131 -127 303zM323 423q0 -106 76 -182q75 -75 183 -75q107 0 182 75q75 76 75 179q0 111 -75 185 q-77 75 -183 75q-107 0 -182 -75q-76 -76 -76 -182z" unicode="6"/><glyph d="M109 55l680 1117h-673v193h1018l-862 -1413z" unicode="7"/><glyph d="M152 388q0 111 48 194.5t137 127.5q-151 106 -151 289q0 168 120 283q111 106 280 106q189 0 303 -133q93 -108 93 -257q0 -176 -149 -287q82 -44 129 -129t47 -191q0 -185 -127 -307q-112 -107 -295 -107q-126 0 -233 59q-101 56 -156 161q-46 88 -46 191zM354 396 q0 -97 66 -164t161 -67q94 0 160 67t66 161q0 95 -66 161q-68 66 -161 66q-94 0 -160 -66q-66 -68 -66 -158zM380 1000q0 -86 60 -147q59 -60 144 -60t144 60q60 60 60 144q0 86 -60 144q-61 60 -144 60q-85 0 -144 -60q-60 -60 -60 -141z" unicode="8"/><glyph d="M122 932q0 200 150 337q130 119 305 119q197 0 336 -142q127 -131 127 -302q0 -161 -134 -344l-477 -648l-151 113l326 445q-44 -7 -75 -7q-150 0 -265 106q-142 129 -142 323zM323 947q0 -109 76 -186q74 -75 182 -75q107 0 183 75q75 76 75 183q0 108 -75 182 q-78 75 -183 75q-108 0 -182 -75q-76 -77 -76 -179z" unicode="9"/><glyph d="M136 99q0 50 36.5 86t86.5 36q51 0 87 -36t36 -87q0 -52 -36 -88t-87 -36t-87 36.5t-36 88.5zM136 764q0 49 36.5 85t86.5 36q51 0 87 -36t36 -87t-36 -87t-87 -36t-87 36.5t-36 88.5z" horiz-adv-x="518" unicode=":"/><glyph d="M18 -264l209 520l178 -69l-252 -506zM179 763q0 50 36.5 86t86.5 36q51 0 87 -36t36 -87t-36 -87t-87 -36t-87 36.5t-36 87.5z" horiz-adv-x="518" unicode=";"/><glyph d="M68 606v174l887 433v-203l-670 -317l670 -318v-202z" horiz-adv-x="1024" unicode="&lt;"/><glyph d="M109 492v150h942v-150h-942zM109 778v150h942v-150h-942z" unicode="="/><glyph d="M69 172v204l670 317l-670 317v202l887 -433v-174z" horiz-adv-x="1024" unicode="&gt;"/><glyph d="M108 1059q0 90 40 161q42 76 120.5 120t171.5 44q149 0 249 -102q88 -90 88 -226q0 -102 -55 -183q-37 -55 -92.5 -87t-179.5 -70q-62 -19 -88.5 -44.5t-26.5 -66.5q0 -44 30.5 -74t74.5 -30q51 0 76 32.5t29 104.5h201q-5 -124 -54 -193q-40 -59 -111 -95t-145 -36 q-130 0 -219 95q-81 86 -81 212q0 102 54.5 164t185.5 110q118 43 151 65q49 34 49 102q0 59 -37 95.5t-98 36.5q-60 0 -96.5 -36t-36.5 -96q0 -27 10 -75h-205q-5 46 -5 72zM321 99q0 50 36.5 86t86.5 36q51 0 87 -36t36 -87q0 -52 -36 -88t-87 -36t-87 36.5t-36 88.5z" horiz-adv-x="886" unicode="?"/><glyph d="M96 683q0 197 98 361q92 153 252 245q175 100 383 100q200 0 370 -96q138 -78 218 -211q82 -137 82 -302q0 -160 -76 -300q-63 -115 -155 -161q-60 -31 -120 -31q-113 0 -154 108q-59 -61 -114 -86.5t-128 -25.5q-148 0 -243 106q-96 105 -96 266q0 185 120 300 q106 101 256 101q148 0 240 -115l12 98h134l-56 -464q-6 -50 -6 -93q0 -66 55 -66q30 0 55 17q56 36 89 100q57 109 57 235q0 226 -158 363q-155 134 -381 134q-247 0 -415 -170q-165 -168 -165 -411q0 -230 146 -392q165 -184 452 -184q125 0 219 23.5t228 88.5l46 -127 q-241 -118 -491 -118q-235 0 -405 96q-156 89 -249 245q-100 167 -100 366zM595 648q0 -92 47 -152q46 -59 118 -59q96 0 165 79q70 80 70 183q0 88 -59 140t-137 52q-88 0 -146 -68t-58 -175z" horiz-adv-x="1594" unicode="@"/><glyph d="M7 0l676 1452l651 -1452h-225l-144 332h-584l-152 -332h-222zM467 526h415l-203 464z" horiz-adv-x="1341" unicode="A"/><glyph d="M164 0v1365h205q122 0 197.5 -16t130.5 -54q74 -50 117 -144q38 -81 38 -167q0 -148 -112 -249q74 -26 125 -74q110 -106 110 -270q0 -179 -137 -293q-67 -55 -145.5 -76.5t-216.5 -21.5h-312zM370 194h128q126 0 189 43q38 25 61.5 69.5t23.5 91.5t-23 92t-61 71 q-66 45 -214 45h-104v-412zM370 779h64q116 0 165 48q58 58 58 153q0 93 -57 148q-49 48 -158 48h-72v-397z" horiz-adv-x="1070" unicode="B"/><glyph d="M96 676q0 175 83 333q97 184 273 286q166 96 365 96q184 0 356 -100v-244q-91 77 -163 107q-102 43 -206 43q-141 0 -258 -73q-124 -76 -189 -211q-53 -110 -53 -235q0 -235 166 -382q144 -128 334 -128q101 0 184.5 35t184.5 120v-248q-177 -101 -371 -101 q-184 0 -341 86q-189 104 -289 299q-76 150 -76 317z" horiz-adv-x="1268" unicode="C"/><glyph d="M164 0v1365h287q219 0 345 -47q224 -83 339 -290q84 -152 84 -345q0 -355 -273 -552q-104 -75 -211 -103t-288 -28h-283zM370 194h93q124 0 207.5 22.5t154.5 75.5q91 68 140 173q46 99 46 217q0 168 -91 297q-72 101 -180.5 146.5t-276.5 45.5h-93v-977z" horiz-adv-x="1315" unicode="D"/><glyph d="M164 0v1365h754v-194h-548v-327h531v-194h-531v-456h548v-194h-754z" horiz-adv-x="1024" unicode="E"/><glyph d="M164 0v1365h681v-194h-475v-327h459v-194h-459v-650h-206z" horiz-adv-x="920" unicode="F"/><glyph d="M96 680q0 211 111 385q103 160 275 248q154 78 328 78q229 0 409 -132q67 -49 151 -145l-147 -141q-170 224 -410 224q-220 0 -372 -158q-138 -143 -138 -359q0 -229 163 -375q153 -137 332 -137q154 0 274 102.5t135 246.5h-341v194h564q0 -154 -14.5 -236.5 t-55.5 -160.5q-74 -143 -208 -232q-162 -108 -361 -108q-173 0 -326 83q-195 107 -295 306q-74 148 -74 317z" horiz-adv-x="1526" unicode="G"/><glyph d="M164 0v1365h206v-534h589v534h206v-1365h-206v637h-589v-637h-206z" horiz-adv-x="1328" unicode="H"/><glyph d="M164 0v1365h206v-1365h-206z" horiz-adv-x="534" unicode="I"/><glyph d="M-34 43l102 175q75 -50 140 -50q109 0 144 103q21 60 21 211v883h206v-883q0 -161 -24 -244q-37 -126 -127.5 -195t-219.5 -69q-127 0 -242 69z" horiz-adv-x="743" unicode="J"/><glyph d="M164 0v1365h206v-545l531 545h275l-616 -618l620 -747h-276l-491 607l-43 -42v-565h-206z" horiz-adv-x="1200" unicode="K"/><glyph d="M164 0v1365h206v-1171h402v-194h-608z" horiz-adv-x="803" unicode="L"/><glyph d="M116 0l287 1468l469 -1061l485 1061l258 -1468h-211l-131 824l-404 -888l-394 889l-146 -825h-213z" horiz-adv-x="1741" unicode="M"/><glyph d="M164 0v1458l995 -1041v948h206v-1449l-995 1040v-956h-206z" horiz-adv-x="1529" unicode="N"/><glyph d="M96 688q0 292 218 501q115 111 266 162q118 40 233 40q310 0 522 -232q188 -205 188 -478q0 -188 -95 -352q-94 -162 -257 -257q-168 -98 -368 -98q-177 0 -339 88q-195 106 -291 290q-77 148 -77 336zM304 686q0 -227 152 -373q151 -145 349 -145q142 0 263 72 q124 74 188 197q59 112 59 245q0 215 -145 367q-143 148 -359 148q-240 0 -388 -180q-119 -145 -119 -331z" horiz-adv-x="1618" unicode="O"/><glyph d="M164 0v1365h233q189 0 270 -27q148 -49 218 -189q45 -89 45 -189q0 -176 -119 -290q-121 -116 -345 -116h-96v-554h-206zM370 745h77q148 0 214 55q70 59 70 163q0 108 -77 163q-68 49 -216 49h-68v-430z" horiz-adv-x="978" unicode="P"/><glyph d="M96 677q0 308 217 513q114 109 264 161q114 40 232 40q176 0 335 -85q183 -99 284 -273q95 -166 95 -366q0 -141 -46 -252.5t-149 -218.5l225 -222h-259l-107 111q-172 -111 -380 -111q-182 0 -347 91q-192 105 -287 288q-77 146 -77 324zM304 675q0 -221 147 -361 q152 -146 349 -146q133 0 241 61l-320 312h265l199 -198q57 60 83 115q47 98 47 222q0 224 -149 371q-148 146 -359 146q-155 0 -279 -82q-105 -68 -163 -178q-61 -115 -61 -262z" horiz-adv-x="1618" unicode="Q"/><glyph d="M164 0v1365h241q132 0 214 -18t146 -61q76 -51 121 -141q42 -85 42 -181q0 -143 -83 -248.5t-219 -134.5l423 -581h-252l-390 559h-37v-559h-206zM370 738h66q136 0 205 49q86 60 86 174q0 107 -80 163q-68 47 -204 47h-73v-433z" horiz-adv-x="1090" unicode="R"/><glyph d="M96 377l208 46q13 -104 39 -150q27 -48 80.5 -76.5t116.5 -28.5q104 0 168 74q56 64 56 154q0 115 -95 179q-34 23 -63 36.5t-169 72.5q-280 118 -280 346q0 183 156 286q114 75 254 75q123 0 211.5 -55t157.5 -174l-167 -99q-37 61 -65 86q-52 48 -138 48 q-90 0 -146 -51q-54 -49 -54 -119q0 -68 65 -113q30 -22 57.5 -34.5t162.5 -67.5q171 -70 244 -166q76 -100 76 -236q0 -197 -139 -325q-120 -111 -300 -111q-231 0 -357 182q-59 85 -79 221z" horiz-adv-x="1055" unicode="S"/><glyph d="M20 1171v194h833v-194h-313v-1171h-206v1171h-314z" horiz-adv-x="874" unicode="T"/><glyph d="M164 487v878h206v-822q0 -91 9.5 -142t33.5 -93q33 -57 92 -94q74 -46 164 -46q81 0 150 37.5t106 102.5q25 42 34 93t9 142v822h206v-878q0 -191 -104 -322q-71 -90 -178 -140q-106 -51 -223 -51q-166 0 -302 97q-203 145 -203 416z" horiz-adv-x="1338" unicode="U"/><glyph d="M7 1365h225l378 -946l383 946h225l-612 -1468z" horiz-adv-x="1225" unicode="V"/><glyph d="M7 1365h223l356 -912l372 978l355 -979l378 913h223l-610 -1453l-351 968l-366 -968z" horiz-adv-x="1921" unicode="W"/><glyph d="M20 0l429 714l-376 651h234l261 -463l274 463h236l-393 -652l413 -713h-231l-302 522l-312 -522h-233z" horiz-adv-x="1118" unicode="X"/><glyph d="M-7 1365h237l312 -546l314 546h237l-447 -775v-590h-206v590z" horiz-adv-x="1087" unicode="Y"/><glyph d="M61 0l670 1171h-561v194h900l-671 -1171h656v-194h-994z" horiz-adv-x="1132" unicode="Z"/><glyph d="M177 -363v1857h374v-187h-172v-1483h172v-187h-374z" horiz-adv-x="647" unicode="["/><glyph d="M7 1436l164 73l781 -1810l-163 -73z" horiz-adv-x="939" unicode="\"/><glyph d="M96 -176h172v1483h-172v187h374v-1857h-374v187z" horiz-adv-x="647" unicode="]"/><glyph d="M32 718l346 653h269l346 -653h-217l-264 490l-263 -490h-217z" horiz-adv-x="1024" unicode="^"/><glyph d="M0 -115h1024v-186h-1024v186z" horiz-adv-x="1024" unicode="_"/><glyph d="M174 1285l187 98l243 -323l-109 -66z" horiz-adv-x="1024" unicode="`"/><glyph d="M85 433q0 210 129 337q118 115 277 115q82 0 143.5 -28.5t126.5 -95.5v101h199v-862h-199v90q-68 -64 -127 -90t-137 -26q-189 0 -309 145q-103 124 -103 314zM288 433q0 -135 81 -217q63 -63 157 -63q120 0 190 89q57 73 57 187q0 132 -76 208q-68 69 -169 69 q-110 0 -176 -84q-64 -80 -64 -189z" horiz-adv-x="1085" unicode="a"/><glyph d="M126 0v1494h199v-732q119 123 271 123q103 0 194 -53q117 -68 169 -188q42 -98 42 -211q0 -220 -135 -349q-116 -110 -274 -110q-148 0 -267 116v-90h-199zM313 430q0 -134 76 -209q69 -68 169 -68q110 0 176 83q64 80 64 188q0 134 -81 218q-62 64 -157 64 q-118 0 -190 -90q-57 -72 -57 -186z" horiz-adv-x="1085" unicode="b"/><glyph d="M84 427q0 119 61 226q59 105 158 165q111 67 252 67q129 0 241 -60v-265q-67 81 -113 109q-61 37 -135 37q-119 0 -193 -87q-67 -78 -67 -189q0 -118 73 -200q68 -77 184 -77q73 0 126 31t125 117v-263q-121 -64 -243 -64q-216 0 -349 146q-120 132 -120 307z" horiz-adv-x="863" unicode="c"/><glyph d="M85 433q0 210 129 337q118 115 277 115q151 0 270 -123v732h199v-1494h-199v90q-119 -116 -267 -116q-186 0 -306 145q-103 124 -103 314zM288 434q0 -136 81 -218q63 -63 157 -63q120 0 190 89q57 72 57 187q0 132 -76 208q-68 69 -169 69q-110 0 -176 -84 q-64 -80 -64 -188z" horiz-adv-x="1085" unicode="d"/><glyph d="M85 430q0 126 50 235q47 104 145 162q97 58 220 58q148 0 259 -82q152 -114 152 -372q0 -14 -1 -47h-617q5 -63 30 -112q60 -119 195 -119q74 0 123 35.5t109 130.5l168 -94q-59 -98 -115 -147q-121 -104 -292 -104q-208 0 -332 150q-94 115 -94 306zM306 546h400 q-14 55 -40 87q-58 73 -161 73q-73 0 -126.5 -43t-72.5 -117z" horiz-adv-x="1002" unicode="e"/><glyph d="M61 676v186h71v331q0 161 57 230q35 43 96.5 68.5t129.5 25.5q60 0 133 -31v-203q-85 43 -126 43q-53 0 -72 -37.5t-19 -143.5v-283h217v-186h-217v-676h-199v676h-71z" horiz-adv-x="538" unicode="f"/><glyph d="M86 425q0 222 132 349q116 111 272 111q163 0 270 -121v98h199v-842q0 -156 -25 -229q-45 -133 -163 -202q-101 -60 -229 -60q-107 0 -199 41t-147 113q-32 42 -48 89t-27 133h196q13 -61 29.5 -93t46.5 -55q65 -49 148 -49q57 0 105.5 23.5t75.5 63.5q38 58 38 180v121 q-118 -122 -273 -122q-174 0 -295 135q-106 120 -106 316zM289 428q0 -135 72 -205q71 -70 166 -70q117 0 186 90q55 72 55 186q0 145 -86 219q-66 58 -156 58q-122 0 -188 -97q-49 -72 -49 -181z" horiz-adv-x="1084" unicode="g"/><glyph d="M126 0v1494h199v-704q105 95 234 95q78 0 145 -31.5t106 -85.5q32 -43 44.5 -97t12.5 -143v-528h-199v509q0 89 -26 135q-35 62 -128 62q-109 0 -154 -72q-35 -55 -35 -218v-416h-199z" horiz-adv-x="993" unicode="h"/><glyph d="M96 1219q0 52 38 90t91 38q54 0 92 -37.5t38 -91.5t-38 -92t-91 -38q-54 0 -92 38.5t-38 92.5zM126 0v862h199v-862h-199z" horiz-adv-x="451" unicode="i"/><glyph d="M96 1219q0 52 38 90t91 38q54 0 92 -37.5t38 -91.5t-38 -92t-91 -38q-54 0 -92 38.5t-38 92.5zM126 -470v1332h199v-1332h-199z" horiz-adv-x="451" unicode="j"/><glyph d="M126 0v1494h199v-911l280 279h267l-374 -362l401 -500h-258l-285 363l-31 -31v-332h-199z" horiz-adv-x="902" unicode="k"/><glyph d="M126 0v1494h199v-1494h-199z" horiz-adv-x="451" unicode="l"/><glyph d="M126 0v862h199v-80q55 60 98 81.5t109 21.5q145 0 230 -127q94 127 254 127q111 0 191 -64q100 -82 100 -288v-533h-199v479q0 123 -30 175t-102 52q-83 0 -120.5 -62.5t-37.5 -198.5v-445h-199v476q0 95 -21 152q-29 78 -113 78q-41 0 -77.5 -22t-53.5 -56 q-29 -57 -29 -183v-445h-199z" horiz-adv-x="1432" unicode="m"/><glyph d="M126 0v862h199v-80q58 58 110 80.5t126 22.5q81 0 148.5 -31.5t104.5 -85.5q54 -79 54 -240v-528h-199v482q0 119 -27 162q-37 62 -133 62q-102 0 -143 -65t-41 -225v-416h-199z" horiz-adv-x="993" unicode="n"/><glyph d="M85 437q0 191 146 328q127 120 313 120q214 0 348 -155q112 -129 112 -300q0 -201 -146 -336q-128 -120 -318 -120q-210 0 -344 156q-111 129 -111 307zM288 433q0 -136 76 -211q70 -69 180 -69q130 0 201 92q56 72 56 184q0 132 -76 207q-69 70 -181 70q-130 0 -201 -94 q-55 -74 -55 -179z" horiz-adv-x="1088" unicode="o"/><glyph d="M126 -470v1332h199v-94q118 117 267 117q186 0 306 -145q103 -124 103 -314q0 -210 -130 -337q-117 -115 -275 -115q-152 0 -271 123v-567h-199zM313 430q0 -133 76 -208q69 -69 169 -69q110 0 176 83q64 81 64 189q0 135 -81 218q-62 63 -157 63q-118 0 -190 -89 q-57 -72 -57 -187z" horiz-adv-x="1085" unicode="p"/><glyph d="M85 426q0 220 135 349q116 110 274 110q149 0 267 -117v94h199v-1332h-199v567q-119 -123 -271 -123q-103 0 -194 53q-117 68 -169 188q-42 98 -42 211zM288 435q0 -136 81 -218q63 -64 157 -64q120 0 190 90q57 72 57 186q0 133 -76 209q-68 68 -169 68q-110 0 -176 -83 q-64 -80 -64 -188z" horiz-adv-x="1085" unicode="q"/><glyph d="M126 0v862h199v-77q55 58 97.5 79.5t102.5 21.5q78 0 164 -52l-92 -182q-57 41 -109 41q-84 0 -123.5 -60t-39.5 -187v-446h-199z" horiz-adv-x="678" unicode="r"/><glyph d="M67 187l169 78q36 -65 65.5 -88.5t75.5 -23.5t73.5 25t27.5 67t-29 65t-170 93q-94 46 -127 90q-40 53 -40 133q0 120 82 190q80 69 186 69q85 0 144.5 -41t101.5 -129l-165 -88q-38 79 -96 79q-27 0 -46.5 -18t-19.5 -44q0 -27 22.5 -46.5t92.5 -51.5q111 -51 164 -88 q103 -71 103 -194q0 -122 -91 -208q-88 -82 -216 -82q-217 0 -307 213z" horiz-adv-x="735" unicode="s"/><glyph d="M47 676v186h85v315h199v-315h154v-186h-154v-676h-199v676h-85z" horiz-adv-x="495" unicode="t"/><glyph d="M126 363v499h199v-495q0 -92 25 -137q42 -77 144 -77q87 0 128 52t41 162v495h199v-499q0 -102 -20.5 -164.5t-70.5 -115.5q-104 -109 -277 -109t-277 109q-51 53 -71 115.5t-20 164.5z" horiz-adv-x="987" unicode="u"/><glyph d="M10 862h223l223 -484l222 484h223l-447 -922z" horiz-adv-x="910" unicode="v"/><glyph d="M10 862h224l225 -492l243 570l245 -570l223 492h223l-451 -927l-240 555l-242 -555z" horiz-adv-x="1402" unicode="w"/><glyph d="M10 0l382 467l-309 395h237l192 -252l196 252h243l-318 -396l369 -466h-237l-253 322l-259 -322h-243z" horiz-adv-x="1011" unicode="x"/><glyph d="M10 862h231l263 -496l246 496h225l-686 -1332h-227l335 630z" horiz-adv-x="984" unicode="y"/><glyph d="M16 0l558 676h-439v186h832l-556 -675h512v-187h-907z" horiz-adv-x="984" unicode="z"/><glyph d="M84 486v170q62 15 88.5 54t26.5 115v395q0 98 21.5 157.5t68.5 92.5q55 38 147 38l119 -3v-178h-25q-94 0 -116 -54q-11 -27 -11 -106v-355q0 -102 -25.5 -153.5t-98.5 -94.5q56 -33 81 -71q43 -63 43 -125v-402q0 -105 22 -131q29 -34 105 -34q5 0 25 1v-178 q-33 -1 -50 -2q-58 -2 -62 -2q-128 0 -185 68q-59 68 -59 232v436q-11 111 -115 130z" horiz-adv-x="647" unicode="{"/><glyph d="M410 -341v1706h205v-1706h-205z" horiz-adv-x="1024" unicode="|"/><glyph d="M93 -198h25q94 0 116 54q11 27 11 107v354q0 102 26 154t98 94q-56 34 -81 71q-43 64 -43 125v402q0 105 -22 131q-29 34 -105 34q-6 0 -25 -1v178q33 1 50 2q56 2 62 2q128 0 186 -68t58 -232v-436q11 -111 115 -130v-170q-62 -15 -88.5 -54t-26.5 -115v-395 q0 -99 -21.5 -158t-69.5 -92q-54 -38 -146 -38l-119 3v178z" horiz-adv-x="647" unicode="}"/><glyph d="M187 1246q63 133 119 191q65 68 174 68q83 0 223 -62q128 -56 188 -56q50 0 93 28.5t63 73.5q10 24 26 24q37 0 104 -73q-59 -120 -118 -177q-33 -33 -85 -53.5t-102 -20.5q-79 0 -230 69q-109 50 -180 50q-43 0 -88 -36t-60 -82q-8 -22 -23 -22q-38 0 -104 78z" horiz-adv-x="1365" unicode="~"/><glyph d="M177 955q0 51 36 87t87 36q52 0 87.5 -36t35.5 -89q0 -50 -36.5 -86t-86.5 -36q-51 0 -87 36t-36 88zM200 -314v1061h199v-1061h-199z" horiz-adv-x="601" unicode="¡"/><glyph d="M187 683q0 175 103 298q84 101 248 152v175h152v-172q116 -14 202 -58v-265q-70 78 -125 108.5t-126 30.5q-116 0 -190 -81q-66 -73 -66 -191q0 -115 64 -183q74 -79 193 -79q109 0 187 73q21 20 63 73v-275q-106 -44 -202 -58v-176h-152v184q-89 28 -137 55.5t-94 78.5 q-120 131 -120 310z" unicode="¢"/><glyph d="M54 59q72 122 131 168.5t151 55.5q20 72 20 127q0 61 -30 118h-233v145h160q-86 173 -86 291q0 189 150 315q129 109 306 109q193 0 309.5 -119t125.5 -324l-202 -75q-3 98 -8.5 136t-21.5 71q-58 117 -204 117q-136 0 -205 -107q-39 -60 -39 -139q0 -51 22 -109.5 t81 -165.5h266v-145h-207q23 -82 23 -125q0 -48 -26 -141q76 -26 108 -38q116 -42 157 -42q39 0 67.5 26.5t72.5 102.5l165 -99q-45 -94 -86 -138q-86 -93 -217 -93q-81 0 -226 53q-156 56 -207 56q-50 0 -76.5 -23t-63.5 -98z" unicode="£"/><glyph d="M76 1243l113 113l203 -203q143 98 292 98q148 0 287 -96l202 200l112 -113l-200 -200q98 -145 98 -288q0 -145 -96 -285l203 -203l-112 -113l-202 203q-137 -99 -291 -99q-144 0 -292 97l-202 -201l-112 113l202 201q-98 133 -98 288q0 147 97 284zM371 754 q0 -140 104 -234q89 -80 208 -80q138 0 232 103q81 88 81 206q0 135 -89 224q-94 95 -224 95q-137 0 -231 -104q-81 -89 -81 -210z" horiz-adv-x="1366" unicode="¤"/><glyph d="M57 1365h224l298 -546l300 546h224l-247 -449h213v-145h-293l-83 -150h376v-145h-393v-476h-193v476h-392v145h375l-83 150h-292v145h213z" unicode="¥"/><glyph d="M410 314h205v-655h-205v655zM410 670v695h205v-695h-205z" horiz-adv-x="1024" unicode="¦"/><glyph d="M169 17h194q26 -210 204 -210q96 0 143 59q39 49 39 126q0 95 -70 143q-43 29 -171 79q-148 58 -211 106q-110 86 -110 250q0 224 193 309q-159 96 -159 265q0 167 135 276q111 89 255 89q151 0 257 -99q114 -107 123 -317h-189q-5 76 -22 120q-42 105 -168 105 q-94 0 -150 -63q-44 -49 -44 -123q0 -79 62 -121q38 -25 173 -74q153 -55 224 -107q114 -84 114 -256q0 -106 -44 -178t-149 -137q82 -54 116.5 -116t34.5 -154q0 -169 -118 -275q-107 -97 -268 -97q-167 0 -278 102q-105 97 -116 298zM382 574q0 -84 61 -144 q59 -59 146 -59q85 0 146 59q60 59 60 142q0 84 -60 141q-62 59 -147 59q-86 0 -145 -59q-61 -59 -61 -139z" unicode="§"/><glyph d="M201 1136q0 51 37.5 88t89.5 37t89 -37t37 -89q0 -53 -37 -90t-89 -37q-53 0 -90 37.5t-37 90.5zM571 1136q0 51 37.5 88t88.5 37q53 0 90 -37t37 -89q0 -53 -37 -90t-89 -37q-53 0 -90 37.5t-37 90.5z" horiz-adv-x="1024" unicode="¨"/><glyph d="M68 685q0 201 107 373q105 169 284 259q151 76 310 76q197 0 362 -94q162 -93 258 -262q95 -166 95 -353q0 -193 -95 -358t-260 -260q-163 -94 -352 -94t-354 95q-164 95 -259 260q-96 165 -96 358zM182 685q0 -168 83 -311q81 -140 219 -220q137 -79 292 -79 q156 0 291 78q139 80 220 220q82 143 82 311q0 162 -82 306q-81 142 -218 222q-135 78 -290 78h-7q-159 0 -301 -87q-145 -88 -223 -242q-66 -131 -66 -276zM367 680q0 185 142 313q126 114 307 114q116 0 233 -63v-178q-53 41 -69 52q-79 49 -173 49q-136 0 -220 -103 q-64 -80 -64 -184q0 -130 94 -211q82 -71 191 -71q65 0 113.5 21t127.5 83v-180q-117 -64 -242 -64q-189 0 -317 128q-123 123 -123 294z" horiz-adv-x="1553" unicode="©"/><glyph d="M83 1081q0 126 82 203q73 69 173 69q94 0 163 -69v55h131v-520h-131v49q-75 -64 -160 -64q-118 0 -193 87q-65 76 -65 190zM215 1080q0 -72 40.5 -118t104.5 -46q66 0 107.5 45t41.5 117q0 77 -46 122q-42 40 -103 40q-66 0 -106 -49q-39 -47 -39 -111z" horiz-adv-x="741" unicode="ª"/><glyph d="M82 437l340 451l132 -97l-264 -353l265 -339l-132 -98zM461 437l340 451l132 -97l-265 -353l265 -339l-132 -98z" horiz-adv-x="1042" unicode="«"/><glyph d="M68 355v191h887v-546h-205v355h-682z" horiz-adv-x="1024" unicode="¬"/><glyph d="M0 351v173h395v-173h-395z" horiz-adv-x="395" unicode="­"/><glyph d="M68 685q0 201 107 373q105 169 284 259q151 76 310 76q197 0 362 -94q162 -93 258 -262q95 -166 95 -353q0 -193 -95 -358t-260 -260q-163 -94 -352 -94t-354 95q-164 95 -259 260q-96 165 -96 358zM182 685q0 -168 83 -311q81 -140 219 -220q137 -79 292 -79 q156 0 291 78q139 80 220 220q82 143 82 311q0 162 -82 306q-81 142 -218 222q-135 78 -290 78h-7q-159 0 -301 -87q-145 -88 -223 -242q-66 -131 -66 -276zM522 273v819h163q152 0 231 -48q48 -30 77.5 -84t29.5 -114q0 -79 -46.5 -142.5t-119.5 -84.5l-11 -4l266 -342 h-191l-243 324l-1 -324h-155zM677 729h27q167 0 167 115q0 108 -162 108h-32v-223z" horiz-adv-x="1553" unicode="®"/><glyph d="M202 1028v160h620v-160h-620z" horiz-adv-x="1024" unicode="¯"/><glyph d="M307 1112q0 116 80 193q83 80 197 80q108 0 189 -80q80 -78 80 -192t-80 -193q-80 -80 -193 -80t-193 80q-80 79 -80 192zM437 1111q0 -61 42.5 -104.5t100.5 -43.5q59 0 101 43.5t42 104.5q0 57 -41.5 97.5t-99.5 40.5q-62 0 -103.5 -40t-41.5 -98z" unicode="°"/><glyph d="M109 0v164h942v-164h-942zM109 628v164h389v382h164v-382h389v-164h-389v-355h-164v355h-389z" unicode="±"/><glyph d="M88 541l298 349q84 98 114.5 147.5t30.5 87.5q0 54 -39 90t-96 36q-122 0 -139 -145h-139q12 100 51 157q76 112 223 112q120 0 199 -74q77 -73 77 -177q0 -67 -36.5 -131t-144.5 -187l-120 -137h302v-128h-581z" horiz-adv-x="792" unicode="²"/><glyph d="M120 773h135q9 -54 29 -76q39 -46 111 -46q57 0 94.5 38t37.5 96q0 79 -57 111q-30 18 -110 19v117q56 0 77 4q36 6 58 34.5t22 68.5q0 49 -33.5 79.5t-87.5 30.5q-95 0 -116 -109h-139q16 91 47 137q65 96 211 96q119 0 187 -68q68 -67 68 -161q0 -110 -86 -171 q96 -61 96 -192q0 -125 -92 -196q-76 -58 -183 -58q-78 0 -140.5 32.5t-96.5 90.5q-24 42 -32 123z" horiz-adv-x="792" unicode="³"/><glyph d="M420 1060l243 323l187 -98l-321 -291z" horiz-adv-x="1024" unicode="´"/><glyph d="M126 -470v1332h199v-499q0 -210 169 -210q87 0 128 52t41 162v495h199v-499q0 -102 -20.5 -165t-70.5 -115q-104 -109 -271 -109q-102 0 -189 46l14 -490h-199z" horiz-adv-x="987" unicode="µ"/><glyph d="M55 1018q0 95 37 171t104 119q89 57 259 57h633l-113 -191h-54v-1369h-189v1369h-152v-1369h-189v880q-17 -1 -23 -1q-155 0 -243 111q-70 89 -70 223z" unicode="¶"/><glyph d="M137 439q0 49 36.5 85t86.5 36q51 0 87 -36t36 -87t-36 -87t-87 -36t-87 36.5t-36 88.5z" horiz-adv-x="519" unicode="·"/><glyph d="M356 -383l176 274l164 -68l-211 -271z" horiz-adv-x="1024" unicode="¸"/><glyph d="M206 1236l77 127h211v-819h-139v692h-149z" horiz-adv-x="792" unicode="¹"/><glyph d="M83 1083q0 115 92 198q79 72 196 72q133 0 218 -93q70 -78 70 -181q0 -121 -92 -203q-80 -72 -199 -72q-131 0 -215 94q-70 77 -70 185zM215 1080q0 -79 46 -124q42 -40 109 -40q72 0 114.5 44t42.5 118q0 73 -42.5 117.5t-112.5 44.5q-80 0 -123 -55q-34 -43 -34 -105z" horiz-adv-x="743" unicode="º"/><glyph d="M109 99l265 339l-265 353l132 97l341 -451l-341 -436zM488 99l265 339l-265 353l132 97l340 -451l-340 -436z" horiz-adv-x="1042" unicode="»"/><glyph d="M158 1238l77 127h211v-819h-139v692h-149zM437 37l782 1351l96 -54l-782 -1357zM1053 115l556 779v-656h88v-123h-88v-115h-141v115h-415zM1296 238h172v242z" horiz-adv-x="1752" unicode="¼"/><glyph d="M158 1238l77 127h211v-819h-139v692h-149zM437 37l782 1351l96 -54l-782 -1357zM1069 0l299 350q83 98 113.5 147t30.5 86q0 54 -39 90t-96 36q-121 0 -139 -144h-138q11 100 50 157q76 113 223 113q120 0 199 -74q77 -73 77 -177q0 -68 -36.5 -132t-144.5 -187 l-120 -137h302v-128h-581z" horiz-adv-x="1752" unicode="½"/><glyph d="M49 778h135q9 -54 29 -76q39 -46 111 -46q57 0 94.5 38t37.5 96q0 79 -57 112q-30 17 -110 18v118q55 0 77 4q36 6 58 34.5t22 68.5q0 49 -34 79.5t-87 30.5q-95 0 -116 -109h-139q16 91 47 137q65 96 211 96q119 0 187 -68q68 -67 68 -161q0 -110 -86 -172 q96 -60 96 -192q0 -125 -92 -196q-77 -58 -183 -58q-77 0 -140 32.5t-97 90.5q-24 42 -32 123zM436 37l782 1351l97 -54l-782 -1357zM1052 115l557 779v-656h87v-123h-87v-115h-141v115h-416zM1296 238h172v242z" horiz-adv-x="1752" unicode="¾"/><glyph d="M109 -5q0 102 55 183q36 55 92.5 87.5t178.5 70.5q62 19 88.5 44.5t26.5 66.5q0 44 -30.5 74t-73.5 30q-97 0 -105 -137h-200q5 123 53 193q40 59 110.5 95t145.5 36q129 0 218 -95q81 -86 81 -212q0 -102 -54.5 -164.5t-184.5 -110.5q-117 -42 -151 -65 q-49 -34 -49 -101q0 -60 37 -96.5t98 -36.5t97.5 36t36.5 96q0 27 -11 75h206q4 -47 4 -72q0 -90 -40 -161q-42 -76 -120.5 -120t-171.5 -44q-149 0 -249 102q-88 89 -88 226zM321 955q0 51 36 87t87 36q52 0 87.5 -36t35.5 -89q0 -50 -36.5 -86t-86.5 -36q-51 0 -87 36 t-36 88z" horiz-adv-x="887" unicode="¿"/><glyph d="M7 0l676 1452l651 -1452h-225l-144 332h-584l-152 -332h-222zM360 1732l175 123l283 -285l-98 -82zM467 526h415l-203 464z" horiz-adv-x="1341" unicode="À"/><glyph d="M7 0l676 1452l651 -1452h-225l-144 332h-584l-152 -332h-222zM467 526h415l-203 464zM537 1570l283 285l176 -123l-361 -244z" horiz-adv-x="1341" unicode="Á"/><glyph d="M7 0l676 1452l651 -1452h-225l-144 332h-584l-152 -332h-222zM372 1594l310 283l315 -283l-136 -106l-178 168l-176 -168zM467 526h415l-203 464z" horiz-adv-x="1341" unicode="Â"/><glyph d="M7 0l676 1452l651 -1452h-225l-144 332h-584l-152 -332h-222zM321 1600q54 77 77 102q60 64 149 64q69 0 160 -47q66 -33 82 -39.5t36 -6.5q29 0 52.5 20.5t57.5 74.5l112 -94q-85 -170 -230 -170q-36 0 -66 9t-95 40q-86 41 -120 41q-50 0 -99 -92zM467 526h415 l-203 464z" horiz-adv-x="1341" unicode="Ã"/><glyph d="M7 0l676 1452l651 -1452h-225l-144 332h-584l-152 -332h-222zM359 1631q0 51 37.5 88t89.5 37t89 -37t37 -90q0 -52 -37 -89.5t-89 -37.5q-53 0 -90 37.5t-37 91.5zM467 526h415l-203 464zM757 1631q0 51 37.5 88t89.5 37t89 -37t37 -90q0 -52 -37 -89.5t-89 -37.5 q-53 0 -90 37.5t-37 91.5z" horiz-adv-x="1341" unicode="Ä"/><glyph d="M7 0l676 1452l651 -1452h-225l-144 332h-584l-152 -332h-222zM467 526h415l-203 464zM492 1684q0 78 57 134.5t135 56.5q80 0 137 -57q56 -56 56 -136q0 -81 -56 -137q-57 -57 -136 -57q-81 0 -137 57t-56 139zM597 1683q0 -37 25.5 -63t62.5 -26q36 0 61.5 25.5 t25.5 62.5q0 36 -25.5 61.5t-62.5 25.5q-35 0 -61 -25.5t-26 -60.5z" horiz-adv-x="1341" unicode="Å"/><glyph d="M20 0l656 1365h604l86 -194h-544l144 -330h529l86 -194h-529l194 -453h546l83 -194h-757l-143 326h-580l-149 -326h-226zM487 520h406l-196 447z" horiz-adv-x="1896" unicode="Æ"/><glyph d="M96 676q0 175 83 333q97 184 273 286q166 96 365 96q184 0 356 -100v-244q-91 77 -163 107q-102 43 -206 43q-141 0 -258 -73q-124 -76 -189 -211q-53 -110 -53 -235q0 -235 166 -382q144 -128 334 -128q101 0 184.5 35t184.5 120v-248q-177 -101 -371 -101 q-184 0 -341 86q-189 104 -289 299q-76 150 -76 317zM532 -392l187 283l174 -79l-231 -272z" horiz-adv-x="1268" unicode="Ç"/><glyph d="M164 0v1365h754v-194h-548v-327h531v-194h-531v-456h548v-194h-754zM269 1732l175 123l284 -285l-99 -82z" horiz-adv-x="1024" unicode="È"/><glyph d="M164 0v1365h754v-194h-548v-327h531v-194h-531v-456h548v-194h-754zM392 1570l284 285l175 -123l-360 -244z" horiz-adv-x="1024" unicode="É"/><glyph d="M164 0v1365h754v-194h-548v-327h531v-194h-531v-456h548v-194h-754zM228 1594l311 283l314 -283l-136 -106l-178 168l-176 -168z" horiz-adv-x="1024" unicode="Ê"/><glyph d="M164 0v1365h754v-194h-548v-327h531v-194h-531v-456h548v-194h-754zM216 1631q0 51 37.5 88t88.5 37q53 0 90 -37t37 -90q0 -52 -37 -89.5t-89 -37.5q-53 0 -90 37.5t-37 91.5zM613 1631q0 51 37.5 88t88.5 37q53 0 90 -37t37 -90q0 -52 -37 -89.5t-89 -37.5 q-53 0 -90 37.5t-37 91.5z" horiz-adv-x="1024" unicode="Ë"/><glyph d="M-65 1732l168 123l270 -285l-98 -82zM164 0v1365h206v-1365h-206z" horiz-adv-x="534" unicode="Ì"/><glyph d="M161 1570l270 285l168 -123l-340 -244zM164 0v1365h206v-1365h-206z" horiz-adv-x="534" unicode="Í"/><glyph d="M-45 1594l310 283l315 -283l-136 -106l-178 168l-176 -168zM164 0v1365h206v-1365h-206z" horiz-adv-x="534" unicode="Î"/><glyph d="M-27 1631q0 51 37.5 88t89.5 37t89 -37t37 -90q0 -52 -37 -89.5t-89 -37.5q-53 0 -90 37.5t-37 91.5zM163 0v1365h206v-1365h-206zM308 1631q0 51 37.5 88t88.5 37q53 0 90 -37t37 -90q0 -52 -37 -89.5t-89 -37.5q-53 0 -90 37.5t-37 91.5z" horiz-adv-x="534" unicode="Ï"/><glyph d="M41 622v177h123v566h287q220 0 346 -47q224 -84 339 -290q84 -151 84 -345q0 -355 -274 -552q-104 -75 -211 -103t-288 -28h-283v622h-123zM370 194h93q124 0 207.5 22.5t154.5 75.5q92 68 141 173q46 100 46 218q0 168 -91 296q-72 101 -180.5 146.5t-277.5 45.5h-93 v-372h294v-177h-294v-428z" horiz-adv-x="1315" unicode="Ð"/><glyph d="M164 0v1458l995 -1041v948h206v-1449l-995 1040v-956h-206zM402 1600q53 77 76 102q60 64 149 64q69 0 160 -47q66 -33 82.5 -39.5t35.5 -6.5q30 0 53.5 20.5t56.5 74.5l113 -94q-85 -170 -230 -170q-37 0 -67 9t-95 40q-86 41 -120 41q-50 0 -99 -92z" horiz-adv-x="1529" unicode="Ñ"/><glyph d="M96 688q0 292 218 501q115 111 266 162q118 40 233 40q310 0 522 -232q188 -205 188 -478q0 -188 -95 -352q-94 -162 -257 -257q-168 -98 -368 -98q-177 0 -339 88q-195 106 -291 290q-77 148 -77 336zM304 686q0 -227 152 -373q151 -145 349 -145q142 0 263 72 q124 74 188 197q59 112 59 245q0 215 -145 367q-143 148 -359 148q-240 0 -388 -180q-119 -145 -119 -331zM512 1732l175 123l283 -285l-98 -82z" horiz-adv-x="1618" unicode="Ò"/><glyph d="M96 688q0 292 218 501q115 111 266 162q118 40 233 40q310 0 522 -232q188 -205 188 -478q0 -188 -95 -352q-94 -162 -257 -257q-168 -98 -368 -98q-177 0 -339 88q-195 106 -291 290q-77 148 -77 336zM304 686q0 -227 152 -373q151 -145 349 -145q142 0 263 72 q124 74 188 197q59 112 59 245q0 215 -145 367q-143 148 -359 148q-240 0 -388 -180q-119 -145 -119 -331zM662 1570l284 285l175 -123l-360 -244z" horiz-adv-x="1618" unicode="Ó"/><glyph d="M96 688q0 292 218 501q115 111 266 162q118 40 233 40q310 0 522 -232q188 -205 188 -478q0 -188 -95 -352q-94 -162 -257 -257q-168 -98 -368 -98q-177 0 -339 88q-195 106 -291 290q-77 148 -77 336zM304 686q0 -227 152 -373q151 -145 349 -145q142 0 263 72 q124 74 188 197q59 112 59 245q0 215 -145 367q-143 148 -359 148q-240 0 -388 -180q-119 -145 -119 -331zM497 1594l310 283l315 -283l-136 -106l-178 168l-176 -168z" horiz-adv-x="1618" unicode="Ô"/><glyph d="M96 688q0 292 218 501q115 111 266 162q118 40 233 40q310 0 522 -232q188 -205 188 -478q0 -188 -95 -352q-94 -162 -257 -257q-168 -98 -368 -98q-177 0 -339 88q-195 106 -291 290q-77 148 -77 336zM304 686q0 -227 152 -373q151 -145 349 -145q142 0 263 72 q124 74 188 197q59 112 59 245q0 215 -145 367q-143 148 -359 148q-240 0 -388 -180q-119 -145 -119 -331zM467 1600q54 77 77 102q59 64 148 64q69 0 161 -47q65 -33 81.5 -39.5t35.5 -6.5q30 0 53.5 20.5t56.5 74.5l113 -94q-85 -170 -230 -170q-36 0 -66 9t-96 40 q-86 41 -120 41q-50 0 -99 -92z" horiz-adv-x="1618" unicode="Õ"/><glyph d="M96 688q0 292 218 501q115 111 266 162q118 40 233 40q310 0 522 -232q188 -205 188 -478q0 -188 -95 -352q-94 -162 -257 -257q-168 -98 -368 -98q-177 0 -339 88q-195 106 -291 290q-77 148 -77 336zM304 686q0 -227 152 -373q151 -145 349 -145q142 0 263 72 q124 74 188 197q59 112 59 245q0 215 -145 367q-143 148 -359 148q-240 0 -388 -180q-119 -145 -119 -331zM484 1631q0 51 37.5 88t88.5 37q53 0 90 -37t37 -90q0 -52 -37 -89.5t-89 -37.5q-53 0 -90 37.5t-37 91.5zM882 1631q0 51 37.5 88t88.5 37q53 0 90 -37t37 -90 q0 -52 -37 -89.5t-89 -37.5q-53 0 -90 37.5t-37 91.5z" horiz-adv-x="1618" unicode="Ö"/><glyph d="M177 419l291 291l-291 292l112 112l291 -292l292 292l112 -112l-291 -292l291 -291l-112 -112l-292 291l-291 -291z" unicode="×"/><glyph d="M96 677q0 306 217 512q115 110 267 162q114 40 234 40q230 0 425 -144l148 151l119 -118l-146 -150q161 -201 161 -451q0 -186 -95 -350q-95 -162 -257 -257q-167 -98 -360 -98q-246 0 -452 158l-147 -147l-113 117l143 146q-144 191 -144 429zM304 674q0 -81 18.5 -142 t66.5 -142l706 721q-130 86 -282 86q-243 0 -390 -179q-119 -146 -119 -344zM504 272q149 -104 307 -104q135 0 256 72q122 73 187 197q59 112 59 245q0 169 -99 313z" horiz-adv-x="1617" unicode="Ø"/><glyph d="M164 487v878h206v-822q0 -91 9.5 -142t33.5 -93q33 -57 92 -94q74 -46 164 -46q81 0 150 37.5t106 102.5q25 42 34 93t9 142v822h206v-878q0 -191 -104 -322q-71 -90 -178 -140q-106 -51 -223 -51q-166 0 -302 97q-203 145 -203 416zM372 1732l175 123l283 -285l-98 -82z" horiz-adv-x="1338" unicode="Ù"/><glyph d="M164 487v878h206v-822q0 -91 9.5 -142t33.5 -93q33 -57 92 -94q74 -46 164 -46q81 0 150 37.5t106 102.5q25 42 34 93t9 142v822h206v-878q0 -191 -104 -322q-71 -90 -178 -140q-106 -51 -223 -51q-166 0 -302 97q-203 145 -203 416zM522 1570l283 285l175 -123 l-360 -244z" horiz-adv-x="1338" unicode="Ú"/><glyph d="M164 487v878h206v-822q0 -91 9.5 -142t33.5 -93q33 -57 92 -94q74 -46 164 -46q81 0 150 37.5t106 102.5q25 42 34 93t9 142v822h206v-878q0 -191 -104 -322q-71 -90 -178 -140q-106 -51 -223 -51q-166 0 -302 97q-203 145 -203 416zM357 1594l310 283l315 -283 l-137 -106l-178 168l-176 -168z" horiz-adv-x="1338" unicode="Û"/><glyph d="M164 487v878h206v-822q0 -91 9.5 -142t33.5 -93q33 -57 92 -94q74 -46 164 -46q81 0 150 37.5t106 102.5q25 42 34 93t9 142v822h206v-878q0 -191 -104 -322q-71 -90 -178 -140q-106 -51 -223 -51q-166 0 -302 97q-203 145 -203 416zM344 1631q0 51 37.5 88t89.5 37 t89 -37t37 -90q0 -52 -37 -89.5t-89 -37.5q-53 0 -90 37.5t-37 91.5zM742 1631q0 51 37.5 88t89.5 37t89 -37t37 -90q0 -52 -37 -89.5t-89 -37.5q-53 0 -90 37.5t-37 91.5z" horiz-adv-x="1338" unicode="Ü"/><glyph d="M-7 1365h237l312 -546l314 546h237l-447 -775v-590h-206v590zM443 1570l284 285l175 -123l-360 -244z" horiz-adv-x="1087" unicode="Ý"/><glyph d="M164 0v1365h206v-191h27q189 0 270 -27q148 -49 218 -188q45 -90 45 -190q0 -176 -119 -290q-121 -116 -345 -116h-96v-363h-206zM370 554h77q148 0 214 55q70 59 70 163q0 108 -77 163q-68 49 -216 49h-68v-430z" horiz-adv-x="978" unicode="Þ"/><glyph d="M55 685v177h71v217q0 189 79 295q48 64 128 100q94 43 200 43q195 0 307 -126q97 -110 97 -256q0 -174 -146 -273q68 -29 121 -82q130 -131 130 -322q0 -162 -102 -289q-157 -197 -440 -198v192q130 3 208 55q131 87 131 245q0 109 -69 186q-41 46 -99.5 67.5 t-170.5 33.5v182q108 3 160 42q36 28 58 74.5t22 95.5q0 94 -69 150q-55 44 -137 44q-132 0 -180 -96q-29 -57 -29 -260v-982h-199v685h-71z" horiz-adv-x="1127" unicode="ß"/><glyph d="M85 433q0 210 129 337q118 115 277 115q82 0 143.5 -28.5t126.5 -95.5v101h199v-862h-199v90q-68 -64 -127 -90t-137 -26q-189 0 -309 145q-103 124 -103 314zM260 1285l186 98l244 -323l-109 -66zM288 433q0 -135 81 -217q63 -63 157 -63q120 0 190 89q57 73 57 187 q0 132 -76 208q-68 69 -169 69q-110 0 -176 -84q-64 -80 -64 -189z" horiz-adv-x="1085" unicode="à"/><glyph d="M85 433q0 210 129 337q118 115 277 115q82 0 143.5 -28.5t126.5 -95.5v101h199v-862h-199v90q-68 -64 -127 -90t-137 -26q-189 0 -309 145q-103 124 -103 314zM288 433q0 -135 81 -217q63 -63 157 -63q120 0 190 89q57 73 57 187q0 132 -76 208q-68 69 -169 69 q-110 0 -176 -84q-64 -80 -64 -189zM417 1060l243 323l187 -98l-321 -291z" horiz-adv-x="1085" unicode="á"/><glyph d="M85 433q0 210 129 337q118 115 277 115q82 0 143.5 -28.5t126.5 -95.5v101h199v-862h-199v90q-68 -64 -127 -90t-137 -26q-189 0 -309 145q-103 124 -103 314zM244 1099l311 284l314 -284l-136 -105l-178 167l-176 -167zM288 433q0 -135 81 -217q63 -63 157 -63 q120 0 190 89q57 73 57 187q0 132 -76 208q-68 69 -169 69q-110 0 -176 -84q-64 -80 -64 -189z" horiz-adv-x="1085" unicode="â"/><glyph d="M85 433q0 210 129 337q118 115 277 115q82 0 143.5 -28.5t126.5 -95.5v101h199v-862h-199v90q-68 -64 -127 -90t-137 -26q-189 0 -309 145q-103 124 -103 314zM194 1106q54 77 76 101q60 64 149 64q69 0 160 -47q67 -33 83 -39.5t35 -6.5q30 0 53 20.5t57 75.5l113 -95 q-85 -169 -231 -169q-35 0 -65.5 9.5t-95.5 39.5q-86 41 -120 41q-50 0 -99 -92zM288 433q0 -135 81 -217q63 -63 157 -63q120 0 190 89q57 73 57 187q0 132 -76 208q-68 69 -169 69q-110 0 -176 -84q-64 -80 -64 -189z" horiz-adv-x="1085" unicode="ã"/><glyph d="M85 433q0 210 129 337q118 115 277 115q82 0 143.5 -28.5t126.5 -95.5v101h199v-862h-199v90q-68 -64 -127 -90t-137 -26q-189 0 -309 145q-103 124 -103 314zM239 1136q0 51 37.5 88t88.5 37q53 0 90 -37t37 -89q0 -53 -37 -90t-89 -37q-53 0 -90 37.5t-37 90.5z M288 433q0 -135 81 -217q63 -63 157 -63q120 0 190 89q57 73 57 187q0 132 -76 208q-68 69 -169 69q-110 0 -176 -84q-64 -80 -64 -189zM609 1136q0 51 37.5 88t88.5 37q53 0 90 -37t37 -89q0 -53 -37 -90t-89 -37q-53 0 -90 37.5t-37 90.5z" horiz-adv-x="1085" unicode="ä"/><glyph d="M85 433q0 210 129 337q118 115 277 115q82 0 143.5 -28.5t126.5 -95.5v101h199v-862h-199v90q-68 -64 -127 -90t-137 -26q-189 0 -309 145q-103 124 -103 314zM288 433q0 -135 81 -217q63 -63 157 -63q120 0 190 89q57 73 57 187q0 132 -76 208q-68 69 -169 69 q-110 0 -176 -84q-64 -80 -64 -189zM357 1189q0 78 57 134t135 56q80 0 137 -56q56 -57 56 -136q0 -80 -56 -137q-57 -56 -136 -56q-81 0 -137 56q-56 58 -56 139zM462 1188q0 -37 25.5 -63t62.5 -26q36 0 61.5 25.5t25.5 62.5q0 36 -25.5 61.5t-62.5 25.5q-35 0 -61 -25.5 t-26 -60.5z" horiz-adv-x="1085" unicode="å"/><glyph d="M85 262q0 130 101 219q85 74 239 74q109 0 225 -58q-3 83 -19 119q-21 48 -67 69t-129 21q-104 0 -230 -32v185q152 26 249 26q211 0 302 -121q117 121 302 121q147 0 252 -76q77 -56 119.5 -152t42.5 -214q0 -19 -2 -57h-620q6 -69 33 -117q30 -53 82.5 -84.5 t112.5 -31.5q73 0 125.5 40t99.5 132l172 -95q-51 -95 -109 -144q-58 -51 -140 -81.5t-158 -30.5q-174 0 -312 138q-107 -138 -318 -138q-177 0 -274 96q-79 79 -79 192zM278 265q0 -51 50 -84.5t125 -33.5q95 0 146 47q39 35 39 76q0 42 -46 74q-55 38 -141 38 q-90 0 -137 -46q-36 -34 -36 -71zM863 547h399q-36 159 -194 159q-160 0 -205 -159z" horiz-adv-x="1559" unicode="æ"/><glyph d="M84 427q0 119 61 226q59 105 158 165q111 67 252 67q129 0 241 -60v-265q-67 81 -113 109q-61 37 -135 37q-119 0 -193 -87q-67 -78 -67 -189q0 -118 73 -200q68 -77 184 -77q73 0 126 31t125 117v-263q-121 -64 -243 -64q-216 0 -349 146q-120 132 -120 307zM290 -383 l176 274l165 -68l-212 -271z" horiz-adv-x="863" unicode="ç"/><glyph d="M85 430q0 126 50 235q47 104 145 162q97 58 220 58q148 0 259 -82q152 -114 152 -372q0 -14 -1 -47h-617q5 -63 30 -112q60 -119 195 -119q74 0 123 35.5t109 130.5l168 -94q-59 -98 -115 -147q-121 -104 -292 -104q-208 0 -332 150q-94 115 -94 306zM218 1285l187 98 l243 -323l-109 -66zM306 546h400q-14 55 -40 87q-58 73 -161 73q-73 0 -126.5 -43t-72.5 -117z" horiz-adv-x="1002" unicode="è"/><glyph d="M85 430q0 126 50 235q47 104 145 162q97 58 220 58q148 0 259 -82q152 -114 152 -372q0 -14 -1 -47h-617q5 -63 30 -112q60 -119 195 -119q74 0 123 35.5t109 130.5l168 -94q-59 -98 -115 -147q-121 -104 -292 -104q-208 0 -332 150q-94 115 -94 306zM306 546h400 q-14 55 -40 87q-58 73 -161 73q-73 0 -126.5 -43t-72.5 -117zM368 1060l244 323l186 -98l-321 -291z" horiz-adv-x="1002" unicode="é"/><glyph d="M85 430q0 126 50 235q47 104 145 162q97 58 220 58q148 0 259 -82q152 -114 152 -372q0 -14 -1 -47h-617q5 -63 30 -112q60 -119 195 -119q74 0 123 35.5t109 130.5l168 -94q-59 -98 -115 -147q-121 -104 -292 -104q-208 0 -332 150q-94 115 -94 306zM196 1099l310 284 l315 -284l-137 -105l-178 167l-176 -167zM306 546h400q-14 55 -40 87q-58 73 -161 73q-73 0 -126.5 -43t-72.5 -117z" horiz-adv-x="1002" unicode="ê"/><glyph d="M85 430q0 126 50 235q47 104 145 162q97 58 220 58q148 0 259 -82q152 -114 152 -372q0 -14 -1 -47h-617q5 -63 30 -112q60 -119 195 -119q74 0 123 35.5t109 130.5l168 -94q-59 -98 -115 -147q-121 -104 -292 -104q-208 0 -332 150q-94 115 -94 306zM197 1136 q0 51 37.5 88t89.5 37t89 -37t37 -89q0 -53 -37 -90t-89 -37q-53 0 -90 37.5t-37 90.5zM306 546h400q-14 55 -40 87q-58 73 -161 73q-73 0 -126.5 -43t-72.5 -117zM567 1136q0 51 37.5 88t89.5 37t89 -37t37 -89q0 -53 -37 -90t-89 -37q-53 0 -90 37.5t-37 90.5z" horiz-adv-x="1002" unicode="ë"/><glyph d="M-85 1285l180 98l223 -323l-109 -66zM126 0v862h199v-862h-199z" horiz-adv-x="451" unicode="ì"/><glyph d="M126 0v862h199v-862h-199zM134 1060l222 323l180 -98l-293 -291z" horiz-adv-x="451" unicode="í"/><glyph d="M-73 1099l297 284l301 -284l-137 -105l-164 167l-162 -167zM126 0v862h199v-862h-199z" horiz-adv-x="451" unicode="î"/><glyph d="M-61 1136q0 51 37.5 88t89.5 37t89 -37t37 -89q0 -53 -37 -90t-89 -37q-53 0 -90 37.5t-37 90.5zM126 0v862h199v-862h-199zM260 1136q0 51 37.5 88t89.5 37t89 -37t37 -89q0 -53 -37 -90t-89 -37q-53 0 -90 37.5t-37 90.5z" horiz-adv-x="451" unicode="ï"/><glyph d="M85 427q0 201 146 338q126 119 315 119q65 0 140 -20q-125 214 -250 324l-212 -114l-65 116l168 89q-25 15 -95 50q-80 42 -119 56l81 124q86 -30 118 -46t172 -99l208 110l71 -116l-166 -88q159 -147 249 -303q158 -275 158 -521q0 -127 -55 -236q-57 -114 -170 -177 q-105 -59 -232 -59q-216 0 -350 154q-112 129 -112 299zM288 433q0 -136 76 -211q70 -69 180 -69q130 0 201 92q55 71 55 184q0 131 -75 207q-69 69 -181 69q-130 0 -201 -94q-55 -73 -55 -178z" horiz-adv-x="1088" unicode="ð"/><glyph d="M120 1106q54 77 77 101q59 64 149 64q68 0 160 -47q66 -33 82 -39.5t36 -6.5q29 0 52.5 20.5t57.5 75.5l112 -95q-85 -169 -230 -169q-36 0 -66.5 9.5t-94.5 39.5q-87 41 -121 41q-50 0 -98 -92zM126 0v862h199v-80q59 58 110.5 80.5t124.5 22.5q81 0 148.5 -31.5 t104.5 -85.5q54 -79 54 -240v-528h-199v482q0 119 -26 162q-38 62 -133 62q-102 0 -143 -65t-41 -225v-416h-199z" horiz-adv-x="993" unicode="ñ"/><glyph d="M85 437q0 191 146 328q127 120 313 120q214 0 348 -155q112 -129 112 -300q0 -201 -146 -336q-128 -120 -318 -120q-210 0 -344 156q-111 129 -111 307zM261 1285l187 98l243 -323l-109 -66zM288 433q0 -136 76 -211q70 -69 180 -69q130 0 201 92q56 72 56 184 q0 132 -76 207q-69 70 -181 70q-130 0 -201 -94q-55 -74 -55 -179z" horiz-adv-x="1088" unicode="ò"/><glyph d="M85 437q0 191 146 328q127 120 313 120q214 0 348 -155q112 -129 112 -300q0 -201 -146 -336q-128 -120 -318 -120q-210 0 -344 156q-111 129 -111 307zM288 433q0 -136 76 -211q70 -69 180 -69q130 0 201 92q56 72 56 184q0 132 -76 207q-69 70 -181 70q-130 0 -201 -94 q-55 -74 -55 -179zM411 1060l244 323l187 -98l-322 -291z" horiz-adv-x="1088" unicode="ó"/><glyph d="M85 437q0 191 146 328q127 120 313 120q214 0 348 -155q112 -129 112 -300q0 -201 -146 -336q-128 -120 -318 -120q-210 0 -344 156q-111 129 -111 307zM232 1099l311 284l314 -284l-136 -105l-178 167l-176 -167zM288 433q0 -136 76 -211q70 -69 180 -69q130 0 201 92 q56 72 56 184q0 132 -76 207q-69 70 -181 70q-130 0 -201 -94q-55 -74 -55 -179z" horiz-adv-x="1088" unicode="ô"/><glyph d="M85 437q0 191 146 328q127 120 313 120q214 0 348 -155q112 -129 112 -300q0 -201 -146 -336q-128 -120 -318 -120q-210 0 -344 156q-111 129 -111 307zM202 1106q54 77 77 101q59 64 148 64q69 0 161 -47q66 -33 82 -39.5t35 -6.5q30 0 53.5 20.5t56.5 75.5l113 -95 q-85 -169 -230 -169q-36 0 -66.5 9.5t-95.5 39.5q-86 41 -120 41q-50 0 -98 -92zM288 433q0 -136 76 -211q70 -69 180 -69q130 0 201 92q56 72 56 184q0 132 -76 207q-69 70 -181 70q-130 0 -201 -94q-55 -74 -55 -179z" horiz-adv-x="1088" unicode="õ"/><glyph d="M85 437q0 191 146 328q127 120 313 120q214 0 348 -155q112 -129 112 -300q0 -201 -146 -336q-128 -120 -318 -120q-210 0 -344 156q-111 129 -111 307zM233 1136q0 51 37.5 88t88.5 37q53 0 90 -37t37 -89q0 -53 -37 -90t-89 -37q-53 0 -90 37.5t-37 90.5zM288 433 q0 -136 76 -211q70 -69 180 -69q130 0 201 92q56 72 56 184q0 132 -76 207q-69 70 -181 70q-130 0 -201 -94q-55 -74 -55 -179zM603 1136q0 51 37.5 88t88.5 37q53 0 90 -37t37 -89q0 -53 -37 -90t-89 -37q-53 0 -90 37.5t-37 90.5z" horiz-adv-x="1088" unicode="ö"/><glyph d="M109 628v164h942v-164h-942zM465 405q0 46 34 79.5t80 33.5q48 0 81.5 -33.5t33.5 -80.5q0 -48 -33.5 -81.5t-80.5 -33.5q-48 0 -81.5 33.5t-33.5 82.5zM465 1018q0 46 34 79.5t80 33.5q48 0 81.5 -33.5t33.5 -80.5q0 -48 -33.5 -81.5t-80.5 -33.5q-48 0 -81.5 34 t-33.5 82z" unicode="÷"/><glyph d="M40 31l130 129q-85 124 -85 272q0 198 145 334q128 119 314 119q145 0 270 -84l135 135l91 -95l-132 -131q95 -128 95 -281q0 -199 -146 -335q-128 -120 -311 -120q-162 0 -284 92l-131 -128zM288 427q0 -62 27 -128l355 366q-59 27 -125 27q-133 0 -202 -89 q-55 -71 -55 -176zM404 201q65 -36 140 -36q129 0 200 87q56 70 56 176q0 78 -35 147z" horiz-adv-x="1088" unicode="ø"/><glyph d="M126 363v499h199v-495q0 -92 25 -137q42 -77 144 -77q87 0 128 52t41 162v495h199v-499q0 -102 -20.5 -164.5t-70.5 -115.5q-104 -109 -277 -109t-277 109q-51 53 -71 115.5t-20 164.5zM197 1285l187 98l243 -323l-109 -66z" horiz-adv-x="987" unicode="ù"/><glyph d="M126 363v499h199v-495q0 -92 25 -137q42 -77 144 -77q87 0 128 52t41 162v495h199v-499q0 -102 -20.5 -164.5t-70.5 -115.5q-104 -109 -277 -109t-277 109q-51 53 -71 115.5t-20 164.5zM374 1060l244 323l187 -98l-321 -291z" horiz-adv-x="987" unicode="ú"/><glyph d="M126 363v499h199v-495q0 -92 25 -137q42 -77 144 -77q87 0 128 52t41 162v495h199v-499q0 -102 -20.5 -164.5t-70.5 -115.5q-104 -109 -277 -109t-277 109q-51 53 -71 115.5t-20 164.5zM182 1099l310 284l314 -284l-136 -105l-178 167l-176 -167z" horiz-adv-x="987" unicode="û"/><glyph d="M126 363v499h199v-495q0 -92 25 -137q42 -77 144 -77q87 0 128 52t41 162v495h199v-499q0 -102 -20.5 -164.5t-70.5 -115.5q-104 -109 -277 -109t-277 109q-51 53 -71 115.5t-20 164.5zM183 1136q0 51 37.5 88t89.5 37t89 -37t37 -89q0 -53 -37 -90t-89 -37 q-53 0 -90 37.5t-37 90.5zM553 1136q0 51 37.5 88t89.5 37t89 -37t37 -89q0 -53 -37 -90t-89 -37q-53 0 -90 37.5t-37 90.5z" horiz-adv-x="987" unicode="ü"/><glyph d="M10 862h231l263 -496l246 496h225l-686 -1332h-227l335 630zM400 1060l244 323l186 -98l-321 -291z" horiz-adv-x="984" unicode="ý"/><glyph d="M126 -470v1964h199v-726q118 117 267 117q186 0 306 -145q103 -124 103 -314q0 -210 -130 -337q-117 -115 -275 -115q-152 0 -271 123v-567h-199zM313 430q0 -133 76 -208q69 -69 169 -69q110 0 176 83q64 81 64 189q0 135 -81 218q-62 63 -157 63q-118 0 -190 -89 q-57 -72 -57 -187z" horiz-adv-x="1085" unicode="þ"/><glyph d="M10 862h231l263 -496l246 496h225l-686 -1332h-227l335 630zM181 1136q0 51 37.5 88t89.5 37t89 -37t37 -89q0 -53 -37 -90t-89 -37q-53 0 -90 37.5t-37 90.5zM551 1136q0 51 37.5 88t89.5 37t89 -37t37 -89q0 -53 -37 -90t-89 -37q-53 0 -90 37.5t-37 90.5z" horiz-adv-x="984" unicode="ÿ"/><glyph d="M96 677q0 192 100 365q91 156 236 246q168 103 376 103q145 0 259.5 -51t235.5 -170v195h735v-194h-529v-329h513v-194h-513v-454h529v-194h-735v188q-67 -64 -114 -97q-164 -117 -373 -117q-195 0 -364 97q-195 112 -290 313q-66 139 -66 293zM304 691q0 -231 155 -382 q144 -140 337 -140q138 0 259 71q119 71 184 187q65 115 65 251q0 233 -173 390q-142 128 -329 128q-216 0 -367 -167q-131 -145 -131 -338z" horiz-adv-x="2144" unicode="Œ"/><glyph d="M85 427q0 134 74 249q133 209 390 209q219 0 345 -167q119 167 327 167q146 0 257 -77q91 -62 131 -182q31 -92 31 -191q0 -18 -1 -51h-629q4 -64 37 -118q68 -113 197 -113q141 0 228 170l170 -98q-151 -251 -412 -251q-100 0 -191 44.5t-145 120.5q-139 -165 -355 -165 q-198 0 -333 144q-121 130 -121 309zM289 433q0 -129 65 -203q66 -77 186 -77q129 0 196 84q58 72 58 193q0 126 -61 197q-69 79 -193 79q-127 0 -194 -88q-57 -74 -57 -185zM1026 546h403q-34 160 -199 160q-160 0 -204 -160z" horiz-adv-x="1726" unicode="œ"/><glyph d="M-7 1365h237l312 -546l314 546h237l-447 -775v-590h-206v590zM218 1631q0 51 37.5 88t88.5 37q53 0 90 -37t37 -90t-37 -90t-90 -37q-52 0 -89 37.5t-37 91.5zM615 1631q0 51 37.5 88t88.5 37q53 0 90 -37t37 -90q0 -52 -37 -89.5t-90 -37.5q-52 0 -89 37.5t-37 91.5z" horiz-adv-x="1087" unicode="Ÿ"/><glyph d="M200 1099l310 284l315 -284l-136 -105l-178 167l-176 -167z" horiz-adv-x="1024" unicode="ˆ"/><glyph d="M149 1106q54 77 77 101q59 64 149 64q68 0 160 -47q66 -33 82 -39.5t36 -6.5q29 0 52.5 20.5t57.5 75.5l112 -95q-85 -169 -230 -169q-36 0 -66.5 9.5t-94.5 39.5q-87 41 -121 41q-50 0 -98 -92z" horiz-adv-x="1024" unicode="˜"/><glyph horiz-adv-x="938"/><glyph horiz-adv-x="1877"/><glyph horiz-adv-x="938"/><glyph horiz-adv-x="1877"/><glyph horiz-adv-x="625"/><glyph horiz-adv-x="469"/><glyph horiz-adv-x="312"/><glyph horiz-adv-x="312"/><glyph horiz-adv-x="234"/><glyph horiz-adv-x="375"/><glyph horiz-adv-x="104"/><glyph d="M0 351v173h395v-173h-395z" horiz-adv-x="395" unicode="‐"/><glyph d="M0 351v173h395v-173h-395z" horiz-adv-x="395" unicode="‑"/><glyph d="M0 351v173h395v-173h-395z" horiz-adv-x="395" unicode="‒"/><glyph d="M210 351v173h741v-173h-741z" unicode="–"/><glyph d="M0 351v173h1181v-173h-1181z" horiz-adv-x="1181" unicode="—"/><glyph d="M102 919l252 506l135 -55l-210 -520z" horiz-adv-x="591" unicode="‘"/><glyph d="M102 906l209 519l178 -69l-252 -506z" horiz-adv-x="591" unicode="’"/><glyph d="M102 -264l209 520l178 -69l-252 -506z" horiz-adv-x="591" unicode="‚"/><glyph d="M102 919l252 506l135 -55l-210 -520zM456 919l252 506l134 -55l-209 -520z" horiz-adv-x="945" unicode="“"/><glyph d="M102 906l209 519l178 -69l-252 -506zM456 906l209 519l177 -69l-252 -506z" horiz-adv-x="945" unicode="”"/><glyph d="M102 -264l209 520l178 -69l-252 -506zM456 -264l209 520l177 -69l-252 -506z" horiz-adv-x="945" unicode="„"/><glyph d="M401 696q0 122 84 204q84 83 202 83q112 0 194 -83q83 -84 83 -203t-82 -203q-83 -84 -199 -84q-115 0 -198 83q-84 85 -84 203z" horiz-adv-x="1365" unicode="•"/><glyph d="M162 99q0 50 36.5 86t86.5 36q51 0 87 -36t36 -87q0 -52 -36 -88t-87 -36t-87 36.5t-36 88.5zM731 99q0 50 36.5 86t86.5 36q52 0 88 -36t36 -87q0 -52 -36 -88t-87 -36q-52 0 -88 36.5t-36 88.5zM1302 99q0 50 36.5 86t86.5 36q51 0 87 -36t36 -87q0 -52 -36 -88 t-87 -36t-87 36.5t-36 88.5z" horiz-adv-x="1710" unicode="…"/><glyph horiz-adv-x="375"/><glyph d="M82 437l340 451l132 -97l-264 -353l265 -339l-132 -98z" horiz-adv-x="664" unicode="‹"/><glyph d="M109 99l265 339l-265 353l132 97l341 -451l-341 -436z" horiz-adv-x="664" unicode="›"/><glyph horiz-adv-x="469"/><glyph d="M-40 460l90 141h89q-3 55 -3 83q0 16 1 49h-177l90 141h112q51 163 154 280q81 91 190 151q163 89 349 89q118 0 260 -52v-212q-132 69 -261 69q-157 0 -283.5 -87.5t-185.5 -237.5h628l-90 -141h-572q-2 -48 -2 -67q0 -30 4 -65h488l-90 -141h-357q42 -92 111 -158 q70 -66 162.5 -103.5t187.5 -37.5q117 0 260 69v-210q-145 -53 -271 -53q-227 0 -415.5 137t-260.5 356h-208z" unicode="€"/><glyph d="M-2 1231v134h485v-134h-171v-644h-141v644h-173zM531 587l167 849l259 -575l259 575l167 -849h-144l-73 423l-209 -438l-208 438l-74 -423h-144z" horiz-adv-x="1438" unicode="™"/><glyph d="M0 0v860h860v-860h-860z" horiz-adv-x="860" unicode="◼"/><glyph d="M61 676v186h71v332q0 161 57 230q35 43 96.5 68.5t128.5 25.5q62 0 134 -32v-203q-83 43 -126 43q-53 0 -72 -37.5t-19 -143.5v-283h163v-186h-163v-676h-199v676h-71zM572 676v186h71v332q0 161 57 230q35 43 96.5 68.5t128.5 25.5q61 0 134 -32v-203q-85 43 -127 43 q-52 0 -71 -37.5t-19 -143.5v-283h217v-186h-217v-676h-199v676h-71zM1147 0v1494h199v-1494h-199z" horiz-adv-x="1471" unicode="ﬄ"/></font>
</defs>
</svg>
